<svg xmlns="http://www.w3.org/2000/svg" width="1024" height="1024" viewBox="0 0 1024 1024">
  <defs>
    <linearGradient id="bg" x1="0" y1="0" x2="0" y2="1">
      <stop offset="0%" stop-color="#fff4d6"/>
      <stop offset="100%" stop-color="#ffd9f2"/>
    </linearGradient>
    <linearGradient id="fur" x1="0" y1="0" x2="1" y2="1">
      <stop offset="0%" stop-color="#8b5a3c"/>
      <stop offset="100%" stop-color="#5f3722"/>
    </linearGradient>
    <linearGradient id="face" x1="0" y1="0" x2="0" y2="1">
      <stop offset="0%" stop-color="#f8d7b2"/>
      <stop offset="100%" stop-color="#efbe90"/>
    </linearGradient>
    <filter id="shadow" x="-20%" y="-20%" width="140%" height="140%">
      <feDropShadow dx="0" dy="12" stdDeviation="16" flood-color="#8b4b6a" flood-opacity="0.18"/>
    </filter>
  </defs>

  <rect width="1024" height="1024" fill="url(#bg)"/>
  <circle cx="860" cy="180" r="90" fill="#fff7b8" opacity="0.55"/>
  <circle cx="180" cy="230" r="60" fill="#ffffff" opacity="0.45"/>
  <circle cx="780" cy="760" r="70" fill="#ffffff" opacity="0.30"/>

  <g filter="url(#shadow)">
    <ellipse cx="512" cy="860" rx="210" ry="52" fill="#c77aa7" opacity="0.18"/>

    <circle cx="350" cy="410" r="118" fill="url(#fur)"/>
    <circle cx="674" cy="410" r="118" fill="url(#fur)"/>
    <circle cx="350" cy="410" r="72" fill="#efc39a"/>
    <circle cx="674" cy="410" r="72" fill="#efc39a"/>

    <ellipse cx="512" cy="500" rx="240" ry="250" fill="url(#fur)"/>
    <path d="M334 545c8-110 83-190 178-190s170 80 178 190c0 92-70 170-178 170S334 637 334 545z" fill="url(#face)"/>

    <ellipse cx="512" cy="735" rx="160" ry="125" fill="url(#fur)"/>
    <ellipse cx="512" cy="753" rx="120" ry="88" fill="#f6cfa8"/>

    <ellipse cx="428" cy="492" rx="42" ry="54" fill="#fff"/>
    <ellipse cx="596" cy="492" rx="42" ry="54" fill="#fff"/>
    <ellipse cx="432" cy="500" rx="22" ry="28" fill="#342019"/>
    <ellipse cx="592" cy="500" rx="22" ry="28" fill="#342019"/>
    <circle cx="438" cy="492" r="8" fill="#fff"/>
    <circle cx="598" cy="492" r="8" fill="#fff"/>

    <path d="M386 428c30-38 66-56 109-59" stroke="#4a281b" stroke-width="16" stroke-linecap="round" fill="none"/>
    <path d="M639 428c-30-38-66-56-109-59" stroke="#4a281b" stroke-width="16" stroke-linecap="round" fill="none"/>

    <ellipse cx="512" cy="590" rx="52" ry="40" fill="#8b5a6b"/>
    <ellipse cx="492" cy="586" rx="11" ry="8" fill="#603846"/>
    <ellipse cx="532" cy="586" rx="11" ry="8" fill="#603846"/>

    <path d="M454 644c28 36 77 54 116 54s88-18 116-54" stroke="#7a314f" stroke-width="14" stroke-linecap="round" fill="none"/>
    <path d="M470 649c13 24 30 39 42 48" stroke="#7a314f" stroke-width="8" stroke-linecap="round" fill="none" opacity="0.6"/>
    <path d="M554 697c12-9 29-24 42-48" stroke="#7a314f" stroke-width="8" stroke-linecap="round" fill="none" opacity="0.6"/>

    <circle cx="360" cy="584" r="18" fill="#ffb1c8" opacity="0.55"/>
    <circle cx="664" cy="584" r="18" fill="#ffb1c8" opacity="0.55"/>

    <path d="M334 778c52 38 108 57 178 59" stroke="#5f3722" stroke-width="22" stroke-linecap="round" fill="none"/>
    <path d="M690 778c-52 38-108 57-178 59" stroke="#5f3722" stroke-width="22" stroke-linecap="round" fill="none"/>
    <circle cx="318" cy="784" r="34" fill="#5f3722"/>
    <circle cx="706" cy="784" r="34" fill="#5f3722"/>
    <circle cx="312" cy="786" r="15" fill="#efc39a"/>
    <circle cx="700" cy="786" r="15" fill="#efc39a"/>

    <path d="M745 768c95 2 137-34 121-84-17-50-79-48-111-8" stroke="#5f3722" stroke-width="24" stroke-linecap="round" fill="none"/>
  </g>

  <g opacity="0.9">
    <path d="M192 842l22-46 20 46h-42z" fill="#fff"/>
    <path d="M824 284l18-38 16 38h-34z" fill="#fff"/>
    <path d="M740 188l10-22 10 22h-20z" fill="#fff"/>
  </g>
</svg>